<svg width="488.63239" height="560" xmlns="http://www.w3.org/2000/svg" data-name="Layer 1">
 <g id="Layer_1">
  <title>Layer 1</title>
  <g>
   <g>
    <polygon fill="#ffaaaa" points="313.0554141998291,500.58876037597656 301.19634437561035,500.5876007080078 295.55486488342285,454.84474182128906 313.05779457092285,454.84596252441406 313.0554141998291,500.58876037597656 "/>
    <path fill="#2f2e41" d="m272.4246,500.31971l0,0c-0.36925,0.62189 -0.56409,2.62907 -0.56409,3.35227l0,0c0,2.22294 1.80202,4.02503 4.02503,4.02503l36.72631,0c1.51648,0 2.7459,-1.22935 2.7459,-2.7459l0,-1.52903s1.81681,-4.59554 -1.92369,-10.2598c0,0 -4.64894,4.4352 -11.59566,-2.51151l-2.04852,-3.71106l-14.8285,10.84481l-8.21921,1.01171c-1.7982,0.22132 -3.39246,-0.03435 -4.31743,1.52348l-0.00014,0z"/>
   </g>
   <g>
    <polygon fill="#ffaaaa" points="368.0554141998291,500.58876037597656 356.19634437561035,500.5876007080078 350.55486488342285,454.84474182128906 368.05779457092285,454.84596252441406 368.0554141998291,500.58876037597656 "/>
    <path fill="#2f2e41" d="m327.4246,500.31971l0,0c-0.36925,0.62189 -0.56409,2.62907 -0.56409,3.35227l0,0c0,2.22294 1.80202,4.02503 4.02503,4.02503l36.72631,0c1.51648,0 2.7459,-1.22935 2.7459,-2.7459l0,-1.52903s1.81681,-4.59554 -1.92369,-10.2598c0,0 -4.64894,4.4352 -11.59566,-2.51151l-2.04852,-3.71106l-14.8285,10.84481l-8.21921,1.01171c-1.7982,0.22132 -3.39246,-0.03435 -4.31743,1.52348l-0.00014,0z"/>
   </g>
   <path fill="#e6e6e6" d="m304.5386,112.05981c-2.54988,-1.98422 -5.19602,-4.08831 -6.51428,-7.0381s-0.79204,-6.99497 2.00646,-8.60973c3.76766,-2.17398 8.70729,1.16635 12.81236,-0.27234c2.78739,-0.97688 4.35963,-3.83628 5.87551,-6.37123s3.64699,-5.21103 6.59773,-5.3411c3.80908,-0.1679 6.4664,3.94384 10.17296,4.83757c4.15525,1.00192 8.31003,-2.26813 12.55894,-1.80261c3.89982,0.42727 6.93756,4.21149 7.13107,8.12988s-2.0756,7.69962 -5.27079,9.976c-4.36184,3.10755 -9.99802,3.61733 -15.33814,4.02418l-30.05796,2.29006"/>
   <circle fill="#ffaaaa" r="27.11314" cy="66.68143" cx="317.89621"/>
   <path fill="#2f2e41" d="m332.38887,73.64379l8.32699,10.65381s12.27947,-20.22886 2.88811,-33.66874c0,0 -4.47236,-4.46395 -4.12177,-8.00342c0.35058,-3.53947 -7.57359,-9.23887 -13.05808,-7.99501c-5.48449,1.24386 -4.64765,-2.69422 -4.64765,-2.69422l-5.61596,2.57116l-3.76278,-2.60657l-3.00518,3.27653s-18.09173,2.22898 -14.36437,14.21429c0,0 -16.23015,5.98756 -10.56196,11.91028c5.66819,5.92272 12.87859,5.29659 14.82361,3.70215s18.49034,-1.74272 18.49034,-1.74272l0.98092,8.13909l7.51716,-3.72316s7.82812,-2.35204 6.11062,5.96654l0,-0.00001z"/>
   <path fill="#3f3d56" d="m131.52762,204.91447c-0.51172,0 -1.02344,-0.19531 -1.41406,-0.58594c-0.78125,-0.78076 -0.78125,-2.04736 0,-2.82812l26.56982,-26.57031c1.99658,-1.99658 2.94092,-4.74854 2.59082,-7.55029l-1.31055,-10.4834c-0.13721,-1.09619 0.64014,-2.0957 1.73633,-2.23242c1.1001,-0.14062 2.09521,0.64062 2.23242,1.73633l1.31055,10.4834c0.50488,4.03564 -0.85547,7.99951 -3.73145,10.875l-26.56982,26.56982c-0.39014,0.39062 -0.90234,0.58594 -1.41406,0.58594l0,-0.00001z"/>
   <rect fill="#3f3d56" transform="rotate(-6.30706, 45.903, 31.9008) translate(-12.8383, 12.5093)" height="14.54077" width="23.13305" y="147.39505" x="141.44164"/>
   <rect fill="#3f3d56" height="7.27039" width="23.13305" y="153.34355" x="122.27426"/>
   <path fill="#3f3d56" d="m130.78258,158.99573l-19.01399,6.79934c-3.91191,1.41041 -8.23631,-0.59878 -9.69991,-4.49737l-25.26782,7.30488c-0.98462,0.30601 -1.99587,0.45235 -2.96717,0.47899c-1.05113,0.05319 -2.02251,0.1863 -2.9273,0.35928c-4.40422,0.81164 -4.47486,0.72909 -5.28649,-4.54004c-0.01332,-0.10647 -3.97336,-11.89353 -4,-12c-0.55882,-3.8454 -0.53321,-4.81578 2.40741,-5.9867c1.33058,-0.51895 2.90066,-1.01126 4.53725,-1.68987c0.15974,-0.07983 0.31941,-0.14634 0.49239,-0.21286l25.09476,-9.221l0,-3.51267l-4.37767,0l-2.64785,-6.17392l23.45817,-10.57814c2.46163,-1.11764 5.22918,-1.35722 7.85047,-0.70517c2.02243,0.50555 3.8454,1.5168 5.30901,2.90066c1.47693,1.38378 2.59465,3.12684 3.2333,5.10939l0.63865,2.02251l6.49325,20.35789l1.37054,4.29775c1.25075,3.91191 -0.82495,8.10328 -4.69699,9.48706l-0.00001,-0.00001z"/>
   <polygon fill="#2f2e41" points="283.7924747467041,273.3838653564453 293.6198673248291,472.9008331298828 316.61992835998535,471.9008331298828 332.17229652404785,317.6343536376953 349.61992835998535,472.9008331298828 369.61992835998535,470.9008331298828 383.46257972717285,282.9379425048828 283.7924747467041,273.3838653564453 "/>
   <path fill="#e6e6e6" d="m346.0006,96.6335c-15.99962,1.61984 -29.47552,5.47008 -39.72483,5.53132l-25.64518,12.57113l4.8899,88.20575l-2.4787,71.88239s41.83926,10.37667 68.99294,14.90228s33.26307,0 33.26307,0l-14.26205,-63.23699l-4.95741,-122.6958l-20.07774,-7.16008z"/>
   <path fill="#ffaaaa" d="m390.2413,219.57764l0.63027,-49.07042l-18.83627,-5.18146l0.56968,54.25922l-4.33365,40.09518l0.11256,0.04198c-1.81674,1.82688 -3.29082,4.74303 -3.91844,8.1899c-1.14525,6.29003 0.95395,11.94026 4.68857,12.62022c3.7347,0.67996 7.69065,-3.86775 8.83583,-10.15778c0.47013,-2.58203 0.38616,-5.04931 -0.12587,-7.11613l0.1677,0.06256l12.20962,-43.74327z"/>
   <path fill="#ffaaaa" d="m240.80148,222.13715l42.18082,-25.0815l-5.41495,-18.77048l-45.97983,28.81393l-36.4594,17.23706l0.02296,0.11792c-2.50663,-0.59569 -5.76339,-0.33043 -9.03087,0.93384c-5.96263,2.30717 -9.6857,7.04747 -8.31584,10.5877c1.3699,3.54029 7.31397,4.53999 13.27656,2.23275c2.44764,-0.94708 4.50813,-2.30683 6.00358,-3.8226l0.0342,0.17569l43.68277,-12.42432l0,0.00001z"/>
   <path fill="#e6e6e6" d="m355.9837,104.22947s8.54838,-6.537 14.58254,3.01708c6.03415,9.55407 22.62807,57.82729 22.62807,57.82729c0,0 4.79881,22.12523 3.65652,25.39372s-2.65083,32.03565 -2.65083,32.03565l-23.57635,-4.27617l0.57016,-27.75948l-22.4664,-35.86057l7.25629,-50.37752z"/>
   <path fill="#e6e6e6" d="m287.41901,114.98737s-16.59392,-1.12447 -18.6053,9.74611s-14.58254,61.65803 -14.58254,61.65803l-26.14799,16.59392l10.96957,23.23584s6.63004,-4.63054 12.16135,-4.63054s17.59961,-8.48305 17.59961,-8.48305c0,0 21.66419,-19.03957 21.66419,-22.55949s-3.05888,-75.56082 -3.05888,-75.56082l-0.00001,0z"/>
   <rect fill="#3f3d56" transform="rotate(-43.0545, -51.6624, 178.318)" height="110.2143" width="9.55407" y="320.08886" x="80.36979"/>
   <ellipse fill="#ff8a8a" transform="rotate(-21.8305, 45.903, 31.9008) translate(-30.2665, 24.8412)" ry="2.47359" rx="4.12265" cy="122.79464" cx="95.1764"/>
   <path fill="#ff8a8a" d="m307.16488,103.87974c-0.84125,0.21857 -1.52411,0.91321 -1.73505,1.75641c-0.09882,0.3952 -0.10242,0.77832 -0.02924,1.13281c0.58392,2.82959 1.18884,5.65485 1.18884,8.54407l0,49.44812c0,0.55225 0.44769,1 1,1l0.4787,0c0.55231,0 1,-0.44775 1,-1l0,-47.7959c0,-3.47174 0.66882,-6.8797 1.20947,-10.30914c0.01965,-0.12494 0.02991,-0.25311 0.02991,-0.38385c0,-1.58496 -1.48755,-2.82245 -3.14264,-2.39252l0.00001,0z"/>
   <path fill="#ff8a8a" d="m336.90976,100.1616c-0.84125,0.21832 -1.52417,0.91278 -1.73529,1.75586c-0.099,0.39532 -0.1026,0.77856 -0.02948,1.13312c0.58386,2.83112 1.1889,5.65778 1.1889,8.54852l0,48.20465c0,0.55225 0.44769,1 1,1l0.4787,0c0.55231,0 1,-0.44775 1,-1l0,-46.55695c0,-3.47162 0.66882,-6.87946 1.20947,-10.30872c0.01965,-0.12494 0.02991,-0.25311 0.02991,-0.38385c0,-1.58478 -1.48724,-2.82227 -3.14221,-2.39264l0,0.00001z"/>
   <path fill="#f2f2f2" d="m134.40074,490.89236c-2.06596,0.12943 -3.20775,-2.43734 -1.64474,-3.93332l0.1555,-0.61819c-0.02037,-0.04925 -0.04083,-0.09845 -0.06146,-0.14762c-2.09427,-4.99272 -5.84395,-0.27999 -11.24767,0.05533c-7.94717,0.49316 -7.82846,6.50372 -4.74985,13.53162c0.83575,1.90784 -6.25866,-13.48616 -6.25866,-23.82032c0,-2.59652 0.14213,-5.19301 0.43275,-7.78295c0.239,-2.11854 0.56839,-4.2241 0.99471,-6.31034c2.30575,-11.2772 7.29852,-22.01825 14.50012,-30.98962c3.46197,-1.89248 6.34906,-4.85065 8.09295,-8.39652c0.62649,-1.27891 6.00922,-2.35919 6.24173,-3.76075c-0.39398,0.05168 -6.37738,-6.24409 -6.08023,-6.61223c-0.54906,-0.83317 -1.53178,-1.24733 -2.13144,-2.06034c-2.98232,-4.04341 -7.0912,-3.33741 -9.23621,2.15727c-4.58224,2.31266 -4.62659,6.14806 -1.81495,9.83683c1.78878,2.34682 2.03456,5.52233 3.60408,8.03478c-0.16151,0.20671 -0.32944,0.40695 -0.4909,0.61366c-0.06206,0.0796 -0.12395,0.15933 -0.18566,0.23918c-2.53339,3.27809 -7.59193,2.43844 -9.00273,-1.45689c-0.1029,-0.28411 -0.97613,15.10569 -0.31905,-0.82329s-5.07197,-7.82005 -7.97245,-11.49344c-3.46441,-4.3876 -10.51175,-2.39353 -11.1222,3.16349c-0.00584,0.05317 -0.01153,0.10628 -0.01712,0.15945c0.42892,0.24196 0.84911,0.49906 1.25955,0.77052c2.33935,1.54727 1.53003,5.17388 -1.24198,5.60114l-0.06277,0.00967c0.15503,1.54366 0.41984,3.07444 0.80734,4.57937c-3.70089,14.31228 4.2862,19.52734 15.69314,19.76387l0.5944,0.84585c-1.08016,3.10807 -1.94912,6.29072 -2.60119,9.5144c-0.61359,2.99043 -1.03991,6.01317 -1.27885,9.04888l-0.00995,0.12979c-0.19788,2.58248 -3.46534,3.68083 -5.10761,1.67801c-0.41796,-0.50972 -0.84567,-0.95654 -1.27676,-1.31047c-4.94561,-4.06264 -11.93282,-5.55869 -17.26826,-8.82425c-2.56833,-1.57196 -5.85945,0.45945 -5.41121,3.43708l0.02182,0.14261c0.79443,0.32289 1.56947,0.69755 2.31871,1.11733c0.42928,0.24222 0.84982,0.49949 1.26059,0.77121c2.3397,1.54767 1.52974,5.17477 -1.24303,5.60051l-0.06282,0.00965c-0.0452,0.00646 -0.08397,0.01295 -0.12911,0.01944l0.04105,0.097c1.78382,4.19631 6.04734,6.91423 10.60025,6.66528c5.35922,-0.29304 12.01607,4.18781 17.88748,12.11045l0.00647,0.00002c1.16259,5.06378 2.86128,10.01127 5.0444,14.72621l18.02019,0c0.06463,-0.20022 0.12274,-0.40692 0.18089,-0.60717c-1.6664,0.10341 -3.34571,0.00649 -4.98629,-0.29702c1.33701,-1.64059 2.67396,-3.29409 4.01097,-4.93462c0.03229,-0.0323 0.05816,-0.0646 0.08397,-0.09689c0.67817,-0.8396 1.36282,-1.67283 2.04099,-2.51245l0.00036,-0.001c0.04245,-2.57756 -0.26652,-5.14664 -0.87876,-7.63987l-0.00051,-0.00036l0.00001,0.00002z"/>
   <path fill="#ccc" d="m45.90299,508.67087c0,0.66003 0.53003,1.19 1.19006,1.19l361.28998,0c0.65997,0 1.19,-0.52997 1.19,-1.19c0,-0.65997 -0.53003,-1.19 -1.19,-1.19l-361.28998,0c-0.66003,0 -1.19006,0.53003 -1.19006,1.19z"/>
   <path fill="#ff8a8a" d="m72.91411,161.54752c0,2.85284 -0.72559,5.54081 -2.0118,7.89896c-4.40306,0.80802 -7.07453,2.32523 -7.88255,-2.95178c-0.01651,-0.09894 -3.28161,-13.09353 -3.29812,-13.19247c-0.56072,-3.84234 1.36875,-5.21108 4.30402,-6.38185c5.27701,2.73739 8.88845,8.2618 8.88845,14.62714z"/>
   <path fill="#ff8a8a" d="m134.10904,145.21092l-4.68359,1.06445c-2.55478,0.57214 -5.10947,-1.02449 -5.68161,-3.59251l-2.60797,-11.48293c-0.58546,-2.56809 1.02457,-5.10947 3.59259,-5.69493l2.88734,-0.65197l6.49325,20.35789l-0.00001,0z"/>
  </g>
 </g>

</svg>